<svg xmlns="http://www.w3.org/2000/svg" viewBox="0 0 512 512" role="img" aria-label="Moda Selection">
  <rect width="512" height="512" rx="112" fill="#211c20"/>
  <circle cx="390" cy="118" r="34" fill="#e6c2c7"/>
  <path d="M90 376V136h54l76 144 76-144h54v240h-48V222l-62 117h-40l-62-117v154H90Z" fill="#fffafb"/>
  <path d="M374 381c-28 0-53-7-74-22l20-38c17 11 35 17 54 17 20 0 31-7 31-20 0-11-7-18-22-22l-31-8c-32-8-48-27-48-57 0-20 8-36 24-48 15-13 36-19 61-19 24 0 47 6 68 19l-19 37c-16-9-32-14-49-14-18 0-28 7-28 20 0 10 7 17 21 21l32 8c34 9 51 28 51 58 0 21-8 37-25 50-17 12-39 18-66 18Z" fill="#e6c2c7"/>
</svg>
